# xmcd CD database file
# Copyright (C) 1997 Ti Kan
#
# Track frame offsets:
#  150
#  4822
#  22007
#  38302
#  52945
#  74902
#  95892
#  109987
#  118840
#  138555
#  161165
#  178815
#  192675
#  209392
#  241572
#  256987
#
# Disc length: 3610 seconds
#
# Revision: 1
# Processed by: cddbd v1.4b41PL1 Copyright (c) Steve Scherf et al.
# Submitted via: CDWizzard Release:4.22
#
DISCID=ee0e1810
DTITLE=Carpenters - A 25th Anniversary Celebration
DYEAR=1900
DGENRE=
TTITLE0=Without a Song
TTITLE1=Superstar
TTITLE2=Rainy Days and Mondays
TTITLE3=Bless the Beasts and Children
TTITLE4=This Masquerade
TTITLE5=Solitaire
TTITLE6=When I fall in Love
TTITLE7=From this Moment On
TTITLE8=Tryin' to Get the Feeling Again
TTITLE9=When it's Gone
TTITLE10=I Believe You
TTITLE11=Reason to Believe
TTITLE12=Close to You
TTITLE13=Calling Occupants of Interplanetary Craft
TTITLE14=Little Girl blue
TTITLE15=We've Only Just Begun
EXTD=
EXTT0=
EXTT1=
EXTT2=
EXTT3=
EXTT4=
EXTT5=
EXTT6=
EXTT7=
EXTT8=
EXTT9=
EXTT10=
EXTT11=
EXTT12=
EXTT13=
EXTT14=
EXTT15=
PLAYORDER=
